<svg width="88" height="35" xmlns="http://www.w3.org/2000/svg"><path d="M15.187 11.002c2.628 0 4.714.88 6.258 2.641 1.544 1.734 2.316 4.09 2.316 7.07V34h-7.964V21.77c0-1.3-.339-2.316-1.016-3.048-.677-.758-1.585-1.137-2.722-1.137-1.192 0-2.127.379-2.804 1.137-.677.732-1.016 1.748-1.016 3.048V34H.275V11.206H8.24v3.25c.705-1.03 1.653-1.855 2.845-2.479 1.191-.65 2.56-.975 4.103-.975zm16.966-1.909c-1.409 0-2.546-.38-3.413-1.138-.84-.786-1.26-1.76-1.26-2.926 0-1.191.42-2.18 1.26-2.966.867-.785 2.004-1.178 3.413-1.178 1.382 0 2.492.393 3.332 1.178.867.786 1.3 1.775 1.3 2.966 0 1.165-.433 2.14-1.3 2.926-.84.758-1.95 1.138-3.332 1.138zm3.941 2.113V34H28.13V11.206h7.964zm3.236 11.376c0-2.356.487-4.415 1.462-6.176.975-1.76 2.33-3.115 4.063-4.063 1.76-.948 3.765-1.422 6.014-1.422 2.898 0 5.336.8 7.313 2.397 1.978 1.572 3.251 3.78 3.82 6.623H53.55c-.487-1.49-1.435-2.234-2.844-2.234-1.002 0-1.801.42-2.397 1.26-.569.812-.853 2.017-.853 3.615 0 1.599.284 2.818.853 3.657.596.84 1.395 1.26 2.397 1.26 1.436 0 2.384-.745 2.844-2.235h8.452c-.569 2.817-1.842 5.025-3.82 6.623-1.977 1.598-4.415 2.397-7.313 2.397-2.249 0-4.253-.474-6.014-1.422-1.733-.948-3.088-2.302-4.063-4.063-.975-1.76-1.463-3.833-1.463-6.217zm47.759-.243c0 .623-.04 1.246-.122 1.869H71.893c.08 1.246.42 2.18 1.015 2.803.623.596 1.409.894 2.357.894 1.327 0 2.275-.596 2.844-1.788h8.492a9.97 9.97 0 01-2.072 4.226c-1.002 1.22-2.275 2.18-3.82 2.885-1.543.704-3.25 1.056-5.119 1.056-2.248 0-4.253-.474-6.014-1.422-1.733-.948-3.101-2.302-4.103-4.063-.975-1.76-1.463-3.833-1.463-6.217 0-2.383.488-4.442 1.463-6.176.975-1.76 2.33-3.115 4.063-4.063 1.76-.948 3.779-1.422 6.054-1.422 2.248 0 4.24.46 5.973 1.382 1.734.92 3.088 2.248 4.063 3.982.975 1.706 1.463 3.724 1.463 6.054zm-8.126-1.991c0-.976-.326-1.734-.976-2.276-.65-.569-1.462-.853-2.438-.853-.975 0-1.774.27-2.397.813-.623.514-1.03 1.286-1.219 2.316h7.03z"/></svg>