<svg width="25" height="25" fill="none" xmlns="http://www.w3.org/2000/svg"><path d="M12.5.39C5.81.39.39 5.81.39 12.5c0 6.69 5.42 12.11 12.11 12.11 6.69 0 12.11-5.42 12.11-12.11C24.61 5.81 19.19.39 12.5.39zm7.031 13.477a.588.588 0 01-.586.586h-4.492v4.492a.588.588 0 01-.586.586h-2.734a.588.588 0 01-.586-.586v-4.492H6.055a.588.588 0 01-.586-.586v-2.734c0-.322.263-.586.586-.586h4.492V6.055c0-.323.263-.586.586-.586h2.734c.322 0 .586.263.586.586v4.492h4.492c.323 0 .586.263.586.586v2.734z" fill="#7000FF"/></svg>